<svg id="svg" xmlns="http://www.w3.org/2000/svg" xmlns:xlink="http://www.w3.org/1999/xlink" width="400" height="225.18518518518516" viewBox="0, 0, 400,225.18518518518516" version="1.1"><g id="svgg"><path id="path0" d="M106.723 21.251 C 106.271 21.393,105.688 21.702,105.428 21.938 L 104.955 22.367 104.939 50.992 C 104.922 82.001,104.897 82.921,104.063 83.596 C 103.365 84.162,102.060 84.078,101.712 83.446 C 101.576 83.198,101.411 82.945,101.346 82.883 C 101.077 82.625,100.450 81.530,100.450 81.317 C 100.450 81.074,100.065 80.573,99.043 79.490 C 98.702 79.128,98.423 78.741,98.423 78.628 C 98.423 78.171,91.260 71.396,90.777 71.396 C 90.429 71.396,88.753 70.239,88.181 69.603 C 87.694 69.062,86.056 68.243,85.460 68.243 C 84.972 68.243,83.412 67.397,82.521 66.649 C 81.598 65.874,79.401 65.343,76.036 65.082 C 74.537 64.966,72.551 64.718,71.622 64.530 C 69.333 64.069,62.821 64.072,60.811 64.536 C 60.006 64.722,57.952 64.973,56.248 65.094 C 52.275 65.376,49.893 65.929,49.432 66.675 C 49.201 67.048,46.859 68.024,45.627 68.259 C 44.392 68.495,42.117 69.499,42.117 69.807 C 42.117 70.092,39.936 71.396,39.460 71.396 C 39.108 71.396,38.494 71.819,37.172 72.973 C 36.708 73.378,36.155 73.753,35.253 74.274 C 34.884 74.488,33.871 75.346,33.002 76.182 C 32.133 77.019,31.320 77.703,31.195 77.703 C 30.921 77.703,29.730 79.158,29.730 79.492 C 29.730 79.623,29.639 79.730,29.528 79.730 C 29.417 79.730,29.088 79.981,28.796 80.289 C 28.504 80.596,28.151 80.850,28.011 80.852 C 27.870 80.854,27.694 81.033,27.618 81.250 C 27.386 81.919,26.096 83.886,25.764 84.077 C 25.592 84.176,25.450 84.379,25.450 84.529 C 25.450 84.679,25.248 84.928,25.000 85.083 C 24.752 85.238,24.550 85.515,24.550 85.700 C 24.550 85.885,24.474 86.037,24.381 86.037 C 24.177 86.039,23.428 87.316,23.412 87.687 C 23.406 87.832,23.012 88.347,22.536 88.831 C 21.937 89.440,21.376 90.430,20.717 92.041 C 20.192 93.321,19.675 94.369,19.566 94.369 C 19.458 94.369,19.369 94.506,19.369 94.672 C 19.369 94.839,19.172 95.153,18.932 95.371 C 18.691 95.589,18.426 96.086,18.342 96.476 C 18.121 97.503,16.877 101.199,16.662 101.464 C 16.293 101.920,15.271 104.876,15.105 105.968 C 14.793 108.025,13.929 112.254,13.518 113.739 C 11.487 121.068,11.415 148.583,13.415 153.309 C 13.789 154.192,15.090 160.415,15.090 161.318 C 15.090 161.912,15.925 164.395,16.453 165.372 C 16.571 165.588,16.756 165.943,16.864 166.160 C 17.154 166.738,18.243 170.354,18.243 170.739 C 18.243 170.919,18.691 171.666,19.238 172.397 C 19.785 173.129,20.282 173.938,20.343 174.195 C 20.623 175.382,21.639 177.356,22.489 178.364 C 23.003 178.974,23.423 179.569,23.423 179.687 C 23.423 180.072,24.969 182.477,25.781 183.355 C 26.219 183.828,26.577 184.379,26.577 184.580 C 26.577 184.781,27.160 185.529,27.873 186.243 C 28.586 186.956,29.449 187.905,29.789 188.351 C 30.130 188.798,30.874 189.498,31.443 189.906 C 32.012 190.315,32.621 190.927,32.797 191.268 C 32.973 191.609,33.495 192.082,33.957 192.320 C 34.419 192.557,35.394 193.319,36.123 194.011 C 36.852 194.704,37.559 195.270,37.693 195.270 C 38.216 195.270,41.216 196.928,41.216 197.217 C 41.216 197.385,41.313 197.523,41.431 197.523 C 41.550 197.523,42.020 197.776,42.476 198.086 C 42.933 198.395,43.527 198.649,43.798 198.649 C 44.615 198.649,46.329 199.323,46.932 199.881 C 48.134 200.995,50.802 201.802,53.286 201.802 C 54.325 201.802,57.795 202.720,58.975 203.307 C 60.351 203.992,72.216 204.042,73.777 203.369 C 75.736 202.524,78.222 201.852,79.842 201.729 C 81.559 201.598,83.789 200.861,84.692 200.126 C 85.401 199.550,87.087 198.706,87.838 198.552 C 88.148 198.488,88.822 198.053,89.337 197.585 C 90.259 196.747,90.751 196.412,92.379 195.512 C 92.832 195.261,93.793 194.446,94.513 193.699 C 95.234 192.953,95.901 192.342,95.996 192.342 C 96.284 192.342,97.297 191.377,97.297 191.102 C 97.297 190.960,97.551 190.606,97.860 190.315 C 98.170 190.024,98.423 189.696,98.423 189.586 C 98.423 189.476,98.732 189.125,99.110 188.807 C 99.717 188.297,100.095 187.714,101.325 185.386 C 101.795 184.497,102.280 184.009,102.694 184.009 C 103.205 184.009,104.577 182.966,104.777 182.425 C 104.867 182.181,105.095 181.982,105.283 181.982 C 105.583 181.982,105.633 183.119,105.684 191.135 C 105.742 200.024,105.756 200.296,106.194 200.539 C 106.441 200.676,106.697 200.858,106.761 200.943 C 107.200 201.523,108.956 201.577,127.514 201.577 L 146.890 201.577 147.600 201.081 C 147.991 200.808,148.385 200.479,148.476 200.349 C 148.667 200.076,148.707 22.875,148.516 22.164 C 148.185 20.932,148.390 20.944,127.120 20.970 C 113.105 20.986,107.312 21.066,106.723 21.251 M251.689 64.564 C 251.070 64.740,249.207 64.984,247.550 65.108 C 244.406 65.342,241.543 66.092,241.157 66.781 C 240.948 67.155,238.698 68.243,238.134 68.243 C 237.740 68.243,234.996 69.712,234.872 69.989 C 234.755 70.252,233.001 71.396,232.716 71.396 C 232.575 71.396,231.791 72.050,230.972 72.848 C 230.154 73.647,229.311 74.358,229.100 74.429 C 228.889 74.499,228.436 74.937,228.093 75.402 C 227.750 75.867,227.040 76.591,226.516 77.011 C 225.992 77.431,225.381 78.156,225.159 78.622 C 224.936 79.089,224.353 79.909,223.863 80.445 C 223.373 80.980,222.817 81.774,222.627 82.207 C 221.448 84.907,220.613 86.036,219.795 86.036 C 219.561 86.036,219.369 86.122,219.369 86.227 C 219.369 86.333,219.052 86.857,218.663 87.393 C 217.405 89.131,217.342 88.742,217.342 79.158 C 217.342 74.556,217.276 69.850,217.194 68.701 L 217.046 66.611 216.024 65.963 L 215.002 65.315 197.138 65.315 C 177.717 65.315,179.093 65.240,176.803 66.427 C 176.149 66.766,176.126 69.265,176.182 134.487 L 176.239 200.338 177.462 200.957 L 178.684 201.577 198.223 201.577 L 217.762 201.577 218.556 201.070 L 219.350 200.563 219.364 160.248 C 219.375 126.331,219.429 119.611,219.701 117.905 C 219.879 116.791,220.086 115.473,220.161 114.977 C 220.236 114.482,220.536 113.570,220.827 112.950 C 221.675 111.148,222.266 109.626,222.411 108.868 C 222.488 108.469,222.932 107.786,223.438 107.291 C 223.928 106.812,224.646 105.933,225.033 105.338 C 225.438 104.717,226.092 104.076,226.572 103.831 C 227.032 103.597,227.745 103.020,228.158 102.550 C 229.101 101.476,229.636 101.200,231.377 100.888 C 232.906 100.615,234.687 100.172,236.937 99.506 C 238.692 98.987,238.550 98.990,240.090 99.439 C 242.705 100.202,244.690 100.676,245.265 100.676 C 246.663 100.676,248.101 101.336,249.422 102.585 C 250.145 103.269,250.854 103.829,250.998 103.829 C 251.141 103.829,251.653 104.361,252.135 105.011 C 252.616 105.662,253.367 106.574,253.803 107.038 C 254.239 107.503,254.720 108.314,254.873 108.840 C 255.025 109.367,255.306 110.344,255.499 111.013 C 255.691 111.682,256.016 112.485,256.221 112.798 C 257.443 114.664,257.431 114.180,257.435 158.896 C 257.437 181.565,257.514 200.219,257.605 200.349 C 257.696 200.479,258.095 200.811,258.491 201.088 L 259.212 201.591 278.429 201.528 L 297.646 201.464 298.316 200.937 L 298.986 200.410 299.121 158.257 C 299.214 129.240,299.333 115.612,299.504 114.527 C 299.805 112.622,300.498 110.691,301.119 110.030 C 301.371 109.762,301.577 109.410,301.577 109.247 C 301.577 107.961,306.460 102.475,308.607 101.349 C 309.147 101.066,310.270 100.764,311.157 100.663 C 312.029 100.564,313.346 100.278,314.085 100.028 C 316.497 99.210,318.172 99.017,319.468 99.408 C 320.095 99.597,321.303 99.959,322.152 100.214 C 323.001 100.468,324.029 100.676,324.437 100.676 C 326.123 100.676,327.982 101.498,329.010 102.697 C 329.544 103.320,330.077 103.829,330.195 103.829 C 330.508 103.829,331.757 104.987,331.757 105.278 C 331.757 105.414,332.198 106.031,332.738 106.648 C 334.403 108.554,336.036 113.168,336.036 115.971 C 336.036 116.563,336.239 117.636,336.486 118.356 C 336.930 119.646,336.937 120.252,336.937 160.063 L 336.937 200.462 337.444 200.691 C 337.722 200.817,338.204 201.066,338.514 201.245 C 339.544 201.840,377.903 201.726,378.665 201.126 C 378.980 200.878,379.348 200.676,379.484 200.676 C 379.911 200.676,379.819 104.490,379.388 100.901 C 378.865 96.550,378.492 94.862,377.610 92.865 C 377.162 91.852,376.702 90.524,376.586 89.914 C 376.337 88.599,375.297 86.224,374.859 85.969 C 374.689 85.869,374.550 85.685,374.550 85.559 C 374.550 85.433,374.296 84.998,373.986 84.592 C 373.677 84.186,373.423 83.684,373.423 83.477 C 373.423 82.965,372.415 81.404,371.451 80.422 C 371.017 79.979,370.521 79.288,370.351 78.887 C 370.180 78.485,369.548 77.776,368.947 77.310 C 368.346 76.845,367.616 76.122,367.325 75.705 C 367.034 75.287,366.413 74.703,365.944 74.407 C 365.474 74.111,364.622 73.372,364.049 72.765 C 363.449 72.129,362.590 71.502,362.022 71.285 C 361.480 71.078,361.036 70.823,361.036 70.717 C 361.036 70.612,360.808 70.454,360.529 70.366 C 360.251 70.278,359.890 70.017,359.728 69.788 C 359.566 69.558,359.288 69.369,359.109 69.369 C 358.930 69.369,358.784 69.287,358.784 69.186 C 358.784 68.931,357.291 68.243,356.738 68.243 C 356.489 68.243,355.865 68.041,355.352 67.793 C 354.839 67.545,354.303 67.342,354.159 67.342 C 354.016 67.342,353.723 67.148,353.508 66.911 C 352.639 65.951,349.209 65.091,346.241 65.089 C 345.521 65.089,343.890 64.886,342.616 64.639 C 339.358 64.006,333.210 64.008,330.202 64.643 C 329.038 64.889,327.446 65.090,326.664 65.090 C 323.594 65.090,320.405 65.856,319.257 66.869 C 318.712 67.349,316.376 68.243,315.665 68.243 C 315.383 68.243,314.780 68.497,314.323 68.806 C 313.867 69.116,313.421 69.369,313.332 69.369 C 313.244 69.369,313.045 69.572,312.890 69.820 C 312.735 70.068,312.503 70.270,312.374 70.270 C 312.244 70.270,311.765 70.524,311.310 70.833 C 310.854 71.143,310.293 71.396,310.063 71.396 C 309.834 71.396,309.111 71.928,308.458 72.579 C 307.115 73.916,306.324 74.547,305.979 74.555 C 305.849 74.558,305.443 74.965,305.077 75.461 C 304.711 75.956,304.181 76.511,303.901 76.695 C 303.621 76.879,302.995 77.561,302.511 78.211 C 302.028 78.860,301.163 79.884,300.591 80.485 C 300.018 81.087,299.550 81.727,299.550 81.909 C 299.550 82.313,298.513 84.162,297.904 84.845 C 297.403 85.407,297.023 86.027,296.502 87.129 C 296.306 87.544,295.949 88.095,295.708 88.354 C 295.467 88.612,295.270 88.906,295.270 89.006 C 295.270 89.359,294.579 89.185,294.430 88.795 C 294.347 88.578,294.046 88.057,293.761 87.637 C 293.476 87.218,293.243 86.637,293.243 86.347 C 293.243 85.677,292.583 84.009,292.318 84.009 C 292.207 84.009,292.117 83.869,292.117 83.699 C 292.117 83.528,291.970 83.266,291.789 83.116 C 291.609 82.967,291.045 82.009,290.538 80.989 C 290.030 79.968,289.240 78.699,288.782 78.169 C 287.346 76.503,287.065 76.158,286.486 75.349 C 286.177 74.916,285.814 74.559,285.681 74.556 C 285.547 74.552,284.787 73.932,283.992 73.177 C 283.196 72.422,282.151 71.602,281.669 71.355 C 281.187 71.107,280.680 70.814,280.543 70.703 C 278.293 68.893,277.275 68.243,276.685 68.243 C 276.065 68.243,273.598 67.147,273.372 66.771 C 272.908 66.000,270.330 65.368,266.441 65.071 C 265.017 64.963,263.193 64.722,262.387 64.536 C 260.435 64.086,253.311 64.105,251.689 64.564 M87.050 98.298 C 88.158 98.564,88.964 98.915,88.964 99.132 C 88.964 99.244,89.192 99.440,89.471 99.567 C 89.749 99.695,90.332 99.992,90.766 100.227 C 91.199 100.462,91.746 100.659,91.980 100.665 C 92.744 100.684,94.353 101.638,94.853 102.368 C 95.122 102.760,95.706 103.321,96.151 103.615 C 97.173 104.290,97.528 104.649,98.144 105.631 C 98.416 106.064,99.046 106.817,99.544 107.303 C 100.043 107.789,100.450 108.310,100.450 108.460 C 100.450 108.859,101.807 111.748,102.242 112.275 C 102.773 112.918,103.518 114.789,103.769 116.104 C 104.038 117.520,104.636 119.945,105.184 121.847 C 106.690 127.075,106.647 140.903,105.109 145.608 C 104.604 147.154,103.604 151.448,103.603 152.076 C 103.602 152.359,103.400 152.922,103.152 153.328 C 102.905 153.733,102.703 154.204,102.703 154.373 C 102.703 154.543,102.572 154.732,102.412 154.793 C 102.252 154.855,101.673 155.940,101.127 157.206 C 100.394 158.902,99.934 159.659,99.377 160.083 C 98.962 160.400,98.462 160.972,98.267 161.354 C 98.072 161.737,97.774 162.131,97.605 162.230 C 97.436 162.329,97.297 162.557,97.297 162.736 C 97.297 162.916,97.188 163.063,97.055 163.063 C 96.923 163.063,96.220 163.672,95.494 164.416 C 94.768 165.160,93.737 165.963,93.202 166.199 C 92.667 166.436,91.845 166.992,91.374 167.435 C 90.904 167.878,90.245 168.303,89.910 168.379 C 89.576 168.455,88.868 168.659,88.337 168.831 C 87.614 169.066,85.905 169.144,81.530 169.144 C 74.370 169.144,72.839 168.900,71.339 167.517 C 70.813 167.032,69.951 166.443,69.424 166.208 C 68.479 165.787,68.034 165.486,67.500 164.910 C 67.352 164.750,67.098 164.496,66.938 164.347 C 65.941 163.424,65.435 162.847,64.920 162.050 C 64.600 161.555,64.026 160.836,63.644 160.453 C 62.593 159.397,62.257 158.930,61.984 158.146 C 61.847 157.752,61.372 156.884,60.928 156.215 C 60.138 155.025,59.925 154.433,59.139 151.239 C 58.926 150.372,58.555 149.003,58.315 148.198 C 57.407 145.150,57.167 143.942,56.859 140.878 C 56.476 137.075,56.442 131.226,56.779 126.948 C 57.026 123.802,57.105 123.395,58.169 119.820 C 58.482 118.767,58.910 117.145,59.121 116.216 C 59.691 113.695,60.001 112.876,61.015 111.209 C 61.522 110.375,61.937 109.605,61.937 109.498 C 61.937 108.959,62.796 107.717,63.879 106.691 C 64.545 106.059,65.090 105.436,65.090 105.306 C 65.090 105.175,65.950 104.258,67.001 103.266 C 69.559 100.854,69.483 100.911,70.322 100.753 C 71.151 100.598,73.057 99.642,73.741 99.039 C 74.946 97.977,83.685 97.490,87.050 98.298 " stroke="none" fill="#5695fc" fill-rule="evenodd"></path><path id="path1" d="M0.000 112.613 L 0.000 225.225 200.000 225.225 L 400.000 225.225 400.000 112.613 L 400.000 0.000 200.000 0.000 L 0.000 0.000 0.000 112.613 M147.543 21.320 C 148.014 21.528,148.446 21.902,148.516 22.164 C 148.707 22.875,148.667 200.076,148.476 200.349 C 148.385 200.479,147.991 200.808,147.600 201.081 L 146.890 201.577 127.514 201.577 C 108.956 201.577,107.200 201.523,106.761 200.943 C 106.697 200.858,106.441 200.676,106.194 200.539 C 105.756 200.296,105.742 200.024,105.684 191.135 C 105.633 183.119,105.583 181.982,105.283 181.982 C 105.095 181.982,104.867 182.181,104.777 182.425 C 104.577 182.966,103.205 184.009,102.694 184.009 C 102.280 184.009,101.795 184.497,101.325 185.386 C 100.095 187.714,99.717 188.297,99.110 188.807 C 98.732 189.125,98.423 189.476,98.423 189.586 C 98.423 189.696,98.170 190.024,97.860 190.315 C 97.551 190.606,97.297 190.960,97.297 191.102 C 97.297 191.377,96.284 192.342,95.996 192.342 C 95.901 192.342,95.234 192.953,94.513 193.699 C 93.793 194.446,92.832 195.261,92.379 195.512 C 90.751 196.412,90.259 196.747,89.337 197.585 C 88.822 198.053,88.148 198.488,87.838 198.552 C 87.087 198.706,85.401 199.550,84.692 200.126 C 83.789 200.861,81.559 201.598,79.842 201.729 C 78.222 201.852,75.736 202.524,73.777 203.369 C 72.216 204.042,60.351 203.992,58.975 203.307 C 57.795 202.720,54.325 201.802,53.286 201.802 C 50.802 201.802,48.134 200.995,46.932 199.881 C 46.329 199.323,44.615 198.649,43.798 198.649 C 43.527 198.649,42.933 198.395,42.476 198.086 C 42.020 197.776,41.550 197.523,41.431 197.523 C 41.313 197.523,41.216 197.385,41.216 197.217 C 41.216 196.928,38.216 195.270,37.693 195.270 C 37.559 195.270,36.852 194.704,36.123 194.011 C 35.394 193.319,34.419 192.557,33.957 192.320 C 33.495 192.082,32.973 191.609,32.797 191.268 C 32.621 190.927,32.012 190.315,31.443 189.906 C 30.874 189.498,30.130 188.798,29.789 188.351 C 29.449 187.905,28.586 186.956,27.873 186.243 C 27.160 185.529,26.577 184.781,26.577 184.580 C 26.577 184.379,26.219 183.828,25.781 183.355 C 24.969 182.477,23.423 180.072,23.423 179.687 C 23.423 179.569,23.003 178.974,22.489 178.364 C 21.639 177.356,20.623 175.382,20.343 174.195 C 20.282 173.938,19.785 173.129,19.238 172.397 C 18.691 171.666,18.243 170.919,18.243 170.739 C 18.243 170.354,17.154 166.738,16.864 166.160 C 16.756 165.943,16.571 165.588,16.453 165.372 C 15.925 164.395,15.090 161.912,15.090 161.318 C 15.090 160.415,13.789 154.192,13.415 153.309 C 11.415 148.583,11.487 121.068,13.518 113.739 C 13.929 112.254,14.793 108.025,15.105 105.968 C 15.271 104.876,16.293 101.920,16.662 101.464 C 16.877 101.199,18.121 97.503,18.342 96.476 C 18.426 96.086,18.691 95.589,18.932 95.371 C 19.172 95.153,19.369 94.839,19.369 94.672 C 19.369 94.506,19.458 94.369,19.566 94.369 C 19.675 94.369,20.192 93.321,20.717 92.041 C 21.376 90.430,21.937 89.440,22.536 88.831 C 23.012 88.347,23.406 87.832,23.412 87.687 C 23.428 87.316,24.177 86.039,24.381 86.037 C 24.474 86.037,24.550 85.885,24.550 85.700 C 24.550 85.515,24.752 85.238,25.000 85.083 C 25.248 84.928,25.450 84.679,25.450 84.529 C 25.450 84.379,25.592 84.176,25.764 84.077 C 26.096 83.886,27.386 81.919,27.618 81.250 C 27.694 81.033,27.870 80.854,28.011 80.852 C 28.151 80.850,28.504 80.596,28.796 80.289 C 29.088 79.981,29.417 79.730,29.528 79.730 C 29.639 79.730,29.730 79.623,29.730 79.492 C 29.730 79.158,30.921 77.703,31.195 77.703 C 31.320 77.703,32.133 77.019,33.002 76.182 C 33.871 75.346,34.884 74.488,35.253 74.274 C 36.155 73.753,36.708 73.378,37.172 72.973 C 38.494 71.819,39.108 71.396,39.460 71.396 C 39.936 71.396,42.117 70.092,42.117 69.807 C 42.117 69.499,44.392 68.495,45.627 68.259 C 46.859 68.024,49.201 67.048,49.432 66.675 C 49.893 65.929,52.275 65.376,56.248 65.094 C 57.952 64.973,60.006 64.722,60.811 64.536 C 62.821 64.072,69.333 64.069,71.622 64.530 C 72.551 64.718,74.537 64.966,76.036 65.082 C 79.401 65.343,81.598 65.874,82.521 66.649 C 83.412 67.397,84.972 68.243,85.460 68.243 C 86.056 68.243,87.694 69.062,88.181 69.603 C 88.753 70.239,90.429 71.396,90.777 71.396 C 91.260 71.396,98.423 78.171,98.423 78.628 C 98.423 78.741,98.702 79.128,99.043 79.490 C 100.065 80.573,100.450 81.074,100.450 81.317 C 100.450 81.530,101.077 82.625,101.346 82.883 C 101.411 82.945,101.576 83.198,101.712 83.446 C 102.060 84.078,103.365 84.162,104.063 83.596 C 104.897 82.921,104.922 82.001,104.939 50.992 L 104.955 22.367 105.428 21.938 C 106.452 21.010,106.799 20.994,127.120 20.970 C 144.898 20.948,146.773 20.980,147.543 21.320 M262.387 64.536 C 263.193 64.722,265.017 64.963,266.441 65.071 C 270.330 65.368,272.908 66.000,273.372 66.771 C 273.598 67.147,276.065 68.243,276.685 68.243 C 277.275 68.243,278.293 68.893,280.543 70.703 C 280.680 70.814,281.187 71.107,281.669 71.355 C 282.151 71.602,283.196 72.422,283.992 73.177 C 284.787 73.932,285.547 74.552,285.681 74.556 C 285.814 74.559,286.177 74.916,286.486 75.349 C 287.065 76.158,287.346 76.503,288.782 78.169 C 289.240 78.699,290.030 79.968,290.538 80.989 C 291.045 82.009,291.609 82.967,291.789 83.116 C 291.970 83.266,292.117 83.528,292.117 83.699 C 292.117 83.869,292.207 84.009,292.318 84.009 C 292.583 84.009,293.243 85.677,293.243 86.347 C 293.243 86.637,293.476 87.218,293.761 87.637 C 294.046 88.057,294.347 88.578,294.430 88.795 C 294.579 89.185,295.270 89.359,295.270 89.006 C 295.270 88.906,295.467 88.612,295.708 88.354 C 295.949 88.095,296.306 87.544,296.502 87.129 C 297.023 86.027,297.403 85.407,297.904 84.845 C 298.513 84.162,299.550 82.313,299.550 81.909 C 299.550 81.727,300.018 81.087,300.591 80.485 C 301.163 79.884,302.028 78.860,302.511 78.211 C 302.995 77.561,303.621 76.879,303.901 76.695 C 304.181 76.511,304.711 75.956,305.077 75.461 C 305.443 74.965,305.849 74.558,305.979 74.555 C 306.324 74.547,307.115 73.916,308.458 72.579 C 309.111 71.928,309.834 71.396,310.063 71.396 C 310.293 71.396,310.854 71.143,311.310 70.833 C 311.765 70.524,312.244 70.270,312.374 70.270 C 312.503 70.270,312.735 70.068,312.890 69.820 C 313.045 69.572,313.244 69.369,313.332 69.369 C 313.421 69.369,313.867 69.116,314.323 68.806 C 314.780 68.497,315.383 68.243,315.665 68.243 C 316.376 68.243,318.712 67.349,319.257 66.869 C 320.405 65.856,323.594 65.090,326.664 65.090 C 327.446 65.090,329.038 64.889,330.202 64.643 C 333.210 64.008,339.358 64.006,342.616 64.639 C 343.890 64.886,345.521 65.089,346.241 65.089 C 349.209 65.091,352.639 65.951,353.508 66.911 C 353.723 67.148,354.016 67.342,354.159 67.342 C 354.303 67.342,354.839 67.545,355.352 67.793 C 355.865 68.041,356.489 68.243,356.738 68.243 C 357.291 68.243,358.784 68.931,358.784 69.186 C 358.784 69.287,358.930 69.369,359.109 69.369 C 359.288 69.369,359.566 69.558,359.728 69.788 C 359.890 70.017,360.251 70.278,360.529 70.366 C 360.808 70.454,361.036 70.612,361.036 70.717 C 361.036 70.823,361.480 71.078,362.022 71.285 C 362.590 71.502,363.449 72.129,364.049 72.765 C 364.622 73.372,365.474 74.111,365.944 74.407 C 366.413 74.703,367.034 75.287,367.325 75.705 C 367.616 76.122,368.346 76.845,368.947 77.310 C 369.548 77.776,370.180 78.485,370.351 78.887 C 370.521 79.288,371.017 79.979,371.451 80.422 C 372.415 81.404,373.423 82.965,373.423 83.477 C 373.423 83.684,373.677 84.186,373.986 84.592 C 374.296 84.998,374.550 85.433,374.550 85.559 C 374.550 85.685,374.689 85.869,374.859 85.969 C 375.297 86.224,376.337 88.599,376.586 89.914 C 376.702 90.524,377.162 91.852,377.610 92.865 C 378.492 94.862,378.865 96.550,379.388 100.901 C 379.819 104.490,379.911 200.676,379.484 200.676 C 379.348 200.676,378.980 200.878,378.665 201.126 C 377.903 201.726,339.544 201.840,338.514 201.245 C 338.204 201.066,337.722 200.817,337.444 200.691 L 336.937 200.462 336.937 160.063 C 336.937 120.252,336.930 119.646,336.486 118.356 C 336.239 117.636,336.036 116.563,336.036 115.971 C 336.036 113.168,334.403 108.554,332.738 106.648 C 332.198 106.031,331.757 105.414,331.757 105.278 C 331.757 104.987,330.508 103.829,330.195 103.829 C 330.077 103.829,329.544 103.320,329.010 102.697 C 327.982 101.498,326.123 100.676,324.437 100.676 C 324.029 100.676,323.001 100.468,322.152 100.214 C 321.303 99.959,320.095 99.597,319.468 99.408 C 318.172 99.017,316.497 99.210,314.085 100.028 C 313.346 100.278,312.029 100.564,311.157 100.663 C 310.270 100.764,309.147 101.066,308.607 101.349 C 306.460 102.475,301.577 107.961,301.577 109.247 C 301.577 109.410,301.371 109.762,301.119 110.030 C 300.498 110.691,299.805 112.622,299.504 114.527 C 299.333 115.612,299.214 129.240,299.121 158.257 L 298.986 200.410 298.316 200.937 L 297.646 201.464 278.429 201.528 L 259.212 201.591 258.491 201.088 C 258.095 200.811,257.696 200.479,257.605 200.349 C 257.514 200.219,257.437 181.565,257.435 158.896 C 257.431 114.180,257.443 114.664,256.221 112.798 C 256.016 112.485,255.691 111.682,255.499 111.013 C 255.306 110.344,255.025 109.367,254.873 108.840 C 254.720 108.314,254.239 107.503,253.803 107.038 C 253.367 106.574,252.616 105.662,252.135 105.011 C 251.653 104.361,251.141 103.829,250.998 103.829 C 250.854 103.829,250.145 103.269,249.422 102.585 C 248.101 101.336,246.663 100.676,245.265 100.676 C 244.690 100.676,242.705 100.202,240.090 99.439 C 238.550 98.990,238.692 98.987,236.937 99.506 C 234.687 100.172,232.906 100.615,231.377 100.888 C 229.636 101.200,229.101 101.476,228.158 102.550 C 227.745 103.020,227.032 103.597,226.572 103.831 C 226.092 104.076,225.438 104.717,225.033 105.338 C 224.646 105.933,223.928 106.812,223.438 107.291 C 222.932 107.786,222.488 108.469,222.411 108.868 C 222.266 109.626,221.675 111.148,220.827 112.950 C 220.536 113.570,220.236 114.482,220.161 114.977 C 220.086 115.473,219.879 116.791,219.701 117.905 C 219.429 119.611,219.375 126.331,219.364 160.248 L 219.350 200.563 218.556 201.070 L 217.762 201.577 198.223 201.577 L 178.684 201.577 177.462 200.957 L 176.239 200.338 176.182 134.487 C 176.126 69.265,176.149 66.766,176.803 66.427 C 179.093 65.240,177.717 65.315,197.138 65.315 L 215.002 65.315 216.024 65.963 L 217.046 66.611 217.194 68.701 C 217.276 69.850,217.342 74.556,217.342 79.158 C 217.342 88.742,217.405 89.131,218.663 87.393 C 219.052 86.857,219.369 86.333,219.369 86.227 C 219.369 86.122,219.561 86.036,219.795 86.036 C 220.613 86.036,221.448 84.907,222.627 82.207 C 222.817 81.774,223.373 80.980,223.863 80.445 C 224.353 79.909,224.936 79.089,225.159 78.622 C 225.381 78.156,225.992 77.431,226.516 77.011 C 227.040 76.591,227.750 75.867,228.093 75.402 C 228.436 74.937,228.889 74.499,229.100 74.429 C 229.311 74.358,230.154 73.647,230.972 72.848 C 231.791 72.050,232.575 71.396,232.716 71.396 C 233.001 71.396,234.755 70.252,234.872 69.989 C 234.996 69.712,237.740 68.243,238.134 68.243 C 238.698 68.243,240.948 67.155,241.157 66.781 C 241.543 66.092,244.406 65.342,247.550 65.108 C 249.207 64.984,251.070 64.740,251.689 64.564 C 253.311 64.105,260.435 64.086,262.387 64.536 M78.829 98.001 C 75.762 98.154,74.438 98.424,73.741 99.039 C 73.057 99.642,71.151 100.598,70.322 100.753 C 69.483 100.911,69.559 100.854,67.001 103.266 C 65.950 104.258,65.090 105.175,65.090 105.306 C 65.090 105.436,64.545 106.059,63.879 106.691 C 62.796 107.717,61.937 108.959,61.937 109.498 C 61.937 109.605,61.522 110.375,61.015 111.209 C 60.001 112.876,59.691 113.695,59.121 116.216 C 58.910 117.145,58.482 118.767,58.169 119.820 C 57.105 123.395,57.026 123.802,56.779 126.948 C 56.442 131.226,56.476 137.075,56.859 140.878 C 57.167 143.942,57.407 145.150,58.315 148.198 C 58.555 149.003,58.926 150.372,59.139 151.239 C 59.925 154.433,60.138 155.025,60.928 156.215 C 61.372 156.884,61.847 157.752,61.984 158.146 C 62.257 158.930,62.593 159.397,63.644 160.453 C 64.026 160.836,64.600 161.555,64.920 162.050 C 65.435 162.847,65.941 163.424,66.938 164.347 C 67.098 164.496,67.352 164.750,67.500 164.910 C 68.034 165.486,68.479 165.787,69.424 166.208 C 69.951 166.443,70.813 167.032,71.339 167.517 C 72.839 168.900,74.370 169.144,81.530 169.144 C 85.905 169.144,87.614 169.066,88.337 168.831 C 88.868 168.659,89.576 168.455,89.910 168.379 C 90.245 168.303,90.904 167.878,91.374 167.435 C 91.845 166.992,92.667 166.436,93.202 166.199 C 93.737 165.963,94.768 165.160,95.494 164.416 C 96.220 163.672,96.923 163.063,97.055 163.063 C 97.188 163.063,97.297 162.916,97.297 162.736 C 97.297 162.557,97.436 162.329,97.605 162.230 C 97.774 162.131,98.072 161.737,98.267 161.354 C 98.462 160.972,98.962 160.400,99.377 160.083 C 99.934 159.659,100.394 158.902,101.127 157.206 C 101.673 155.940,102.252 154.855,102.412 154.793 C 102.572 154.732,102.703 154.543,102.703 154.373 C 102.703 154.204,102.905 153.733,103.152 153.328 C 103.400 152.922,103.602 152.359,103.603 152.076 C 103.604 151.448,104.604 147.154,105.109 145.608 C 106.647 140.903,106.690 127.075,105.184 121.847 C 104.636 119.945,104.038 117.520,103.769 116.104 C 103.518 114.789,102.773 112.918,102.242 112.275 C 101.807 111.748,100.450 108.859,100.450 108.460 C 100.450 108.310,100.043 107.789,99.544 107.303 C 99.046 106.817,98.416 106.064,98.144 105.631 C 97.528 104.649,97.173 104.290,96.151 103.615 C 95.706 103.321,95.122 102.760,94.853 102.368 C 94.353 101.638,92.744 100.684,91.980 100.665 C 91.746 100.659,91.199 100.462,90.766 100.227 C 90.332 99.992,89.749 99.695,89.471 99.567 C 89.192 99.440,88.964 99.244,88.964 99.132 C 88.964 98.915,88.158 98.564,87.050 98.298 C 85.836 98.006,81.705 97.857,78.829 98.001 " stroke="none" fill="#fcfcfc" fill-rule="evenodd"></path></g></svg>